<?xml version="1.0" encoding="UTF-8"?>
<svg id="Layer_1" data-name="Layer 1" xmlns="http://www.w3.org/2000/svg" viewBox="0 0 1920.05 31.24">
  <defs>
    <style>
      .cls-1 {
        fill: #111111;
      }

      .cls-1, .cls-2 {
        stroke-width: 0px;
      }

      .cls-2 {
        fill: #111111;
      }
    </style>
  </defs>
  <path class="cls-2" d="M1919.53,30.72c-6.81-.27-14.14-.39-23-.39-6.77,0-13.68.07-20.36.14-6.63.07-13.49.14-20.17.14H.5c.04-8.56,1.12-13.38,4.78-20.69.32,2.4,1.38,4.7,3.02,6.5l.54.59,2.05-5.14,5.07,5.61-.18-1.55c-.05-.39.05-.72.3-.99.38-.42,1.09-.69,1.86-.69.71,0,1.35.22,1.71.6.24.25.35.57.33.94l-.12,2.44,4.44-9.11,4.49,8.2.4-.96c1.33-3.16,4.77-5.36,8.38-5.36.84,0,1.66.12,2.44.37,3.44,2.79,8.06,3.14,11.71,3.14,1.09,0,2.19-.04,3.26-.08l18.44-.73,2.78-7.3c5.8,2.62,11.95,4.21,18.31,4.71l.35.03.14-.32c1.02-2.26,2.98-4.07,5.31-4.9,1.72,4.74,6.5,8.12,11.57,8.12h.49s1.86-3.76,1.86-3.76c1.15,2.9,4.45,4.6,7.4,4.6,1.78,0,3.37-.58,4.55-1.64,1.42,1.77,3.47,2.98,5.72,3.35l.23.04,6.57-5.59c.52,1.28,1.84,1.97,3.82,1.97,1.5,0,3.46-.4,5.38-1.1,2.26-.83,4.67-1.25,7.15-1.25,3.9,0,7.94,1.04,11.66,3.01l.91.48-.19-1.02c-.29-1.55-.27-3.01.04-4.35,1.77.93,3.36,1.39,4.83,1.39,2.65,0,4.63-1.48,6.72-3.05,1.18-.88,2.38-1.79,3.81-2.54-.8,1.69-.82,3.72-.01,5.8,1.33,3.41,4.55,5.98,7.83,6.26.31.03.62.04.93.04,6.01,0,10.82-4.88,13.24-9.23,8.04,3.69,16.51,6.48,25.18,8.31l1.19.25-3.89-5.88c7.24,2.41,13.46,3.59,18.96,3.59,4.64,0,8.85-.85,12.55-2.54l-2.46,4.5,1.45-.75c5.47-2.82,11.64-4.31,17.85-4.31,1.37,0,2.74.07,4.1.22l.39,4.7h.87c3.64,0,7.27-.47,10.79-1.42l.62-.17-.32-.56c-.94-1.67-2.39-3.03-4.08-3.92l9.34.17,7.84,11.24,8.65-13.63.1,11.11.78-.56c4.15-2.99,9.3-4.64,14.49-4.64,1.14,0,2.28.08,3.39.24,2.73.35,4.96.85,6.92,1.29,2.49.55,4.65,1.03,6.97,1.03,2.74,0,5.49-.67,8.85-2.16.93,3.82,5.27,5.54,9.33,5.54,1.24,0,2.45-.15,3.58-.45,1.5-.39,2.99-.93,4.44-1.45,2.71-.97,5.52-1.98,8.29-1.98.63,0,1.26.05,1.85.16.94.17,1.93.47,2.88.77,1.47.46,2.98.93,4.45.93.94,0,1.77-.19,2.54-.58,1.18-.59,2.02-1.6,2.84-2.58.87-1.04,1.69-2.03,2.85-2.45.45-.16.94-.24,1.52-.24.73,0,1.48.12,2.32.28l43.8,7.96-1.33-1.18c-3.11-2.76-5.51-6.25-6.98-10.13l15.17,5.93-.07-.8c-.06-.62.18-1.25.66-1.78.57-.63,1.42-1.02,2.2-1.02.33,0,.64.07.92.2l3.2,8.07.52-.87c.66-1.1,1.95-1.75,3.45-1.75,1.59,0,2.97.74,3.61,1.93l.3.57,13.97-12.66.68,3.51c.22,1.13,2.59,3.26,6.43,6.63,2.83,2.48,5.76,5.05,6.63,6.46l.39.64.44-.61c.52-.73,1.06-1.51,1.62-2.32,2.15-3.12,4.56-6.63,7.53-9.14-.04,3.38.95,6.73,2.82,9.54l.32.48.43-.39c2.91-2.62,6.17-4.82,9.69-6.53l5.03,6.83.39-.23c4.92-2.87,10.51-4.71,16.17-5.33l.48-.05-.03-.48c-.13-1.86-.99-3.68-2.36-5.11,6.24,1.86,12.15,4.59,17.61,8.13l1.04.67-.28-1.21c-.65-2.8.17-5.88,2.1-8l5.42,7.61.42-.44c2.54-2.69,5.45-4.98,8.66-6.81l.34,11.28,6.07-5.76,13.8-2.26,7.3,5.98.2-.75c1.18-4.36,6.16-4.83,8.25-4.83,2.37,0,4.97.54,7.14,1.48.84.36,1.7.76,2.56,1.16,3.7,1.7,7.52,3.46,11.29,3.46,1.57,0,2.99-.3,4.34-.92l.39-.18-3.99-13.69c10.74,3.3,20.84,8.94,29.27,16.36l.81.71.02-1.08c.08-4.05,1.74-8.02,4.53-10.94-.96,3.44-1.05,7.13-.23,10.6l.15.63,17.18-9.01c3.17,2.63,5.71,6.01,7.37,9.77l.92-.4c-.06-.79,2.7-4.45,8.21-10.85.06.38.18.79.4,1.25,2,4.22,10.18,9.12,17.73,9.12,3.69,0,8.67-1.19,11.84-6.74,2.63,4.07,6.49,7.32,10.97,9.19l.53.22.15-.55c1.59-6,7.91-8.73,13.11-8.73,4.65,0,8.5,1.95,10.55,5.36l.64,1.06.27-1.21c1.05-4.65,6.26-7.16,10.85-7.24h.3c3.61,0,7.2,1.08,10.67,2.14,1.08.33,2.15.65,3.23.95,5.32,1.46,10.86,2.2,16.47,2.2,7.45,0,14.71-1.28,21.58-3.81-.07.56.05,1.16.35,1.74.57,1.11,1.68,1.86,2.76,1.86.3,0,.6-.05.88-.16l4.57-.86,38.67-7.35.29,9.4.59-.13c6.95-1.57,13.19-6.37,16.54-12.67,2.13,6.2,5.28,11.95,9.37,17.09l.39.5,10.48-13.37,3.28,6.19.42-.17c4.15-1.65,8.03-4.13,11.27-7.21,1.76,2.92,13.84,8.24,15.34,8.36.44.04.87.05,1.29.05,6.8,0,11.97-4.3,17.45-8.85,1.3-1.08,2.65-2.2,4.02-3.25.82,4.59,5.79,7.39,10.29,7.39,1.01,0,1.98-.13,2.9-.4,4.28-1.23,8-4.56,11.09-9.92.14.53.4,1.05.77,1.54,1.33,1.77,4.03,3.01,6.57,3.01h.17c1.2-.03,2.41-.2,3.58-.36,1.24-.17,2.52-.35,3.73-.35s2.24.18,3.15.54c.73.29,1.4.71,2.11,1.16.63.39,1.27.79,1.97,1.11,2,.89,4.23.97,6.34.98h.19c4.57,0,9.19-.29,13.72-.86h.12c.7-.1,1.43-.2,2.12-.2.53,0,1,.05,1.42.16,1.12.29,2.11,1,3.07,1.69,7.21,5.21,13.02,7.54,18.85,7.54,5.25,0,10.93-1.88,18.39-6.07,2.4,1.64,5.42,2.54,8.53,2.54,4.36,0,8.43-1.66,11.23-4.57,2.34,1.57,5.17,2.4,8.2,2.4,4.11,0,8.05-1.57,10.77-4.25l1.7,17.18.7-.5c8.85-6.31,18.41-11.63,28.45-15.8l.39,5.78.59-.17c5.18-1.47,10.05-3.78,14.46-6.87,1.92,1.38,4.35,2.14,6.9,2.14,3.32,0,6.47-1.26,8.66-3.41l.76,11.96.58-.14c6.48-1.59,12.81-3.88,18.8-6.82,2.11,1.52,4.78,2.36,7.58,2.36,3.48,0,6.84-1.29,9.19-3.5.79,3.82,4.94,6.28,8.71,6.42.16,0,.31,0,.47,0,3.99,0,7.92-1.81,10.15-3.06,2.19,4.06,6.22,6.28,11.42,6.28,7.27,0,15.7-4.29,20.06-10.1l3.33,10,.47-.15c8.31-2.59,16.19-6.36,23.42-11.2.88,4.18,3,8.1,6.01,11.12l.25.26,17.26-8.69c1.84,3.14,5.64,5.06,10.07,5.06,1.15,0,2.29-.13,3.38-.4,4.77-1.16,8.78-4.26,12.34-7.15l1.23,12.16.61-.23c15.27-5.8,31.28-9,47.6-9.52l6.65,10.01.4-.22c4.92-2.71,9.36-6.42,12.9-10.79l1.73,8.34,15.85-12.31c.89,6.4,3.23,12.6,6.8,17.98l.3.45.43-.34c5.09-4.03,9.7-8.66,13.7-13.77l.3,16.9,19.95-19.37c1.18,2.71,4.2,4.6,7.49,4.6,1.36,0,2.63-.34,3.71-.98l2.02,8.12,20.91-11.07c.86,2.41,4.11,9.56,5.16,10.33,1.17.86,3.11,1.28,5.94,1.28,1.94,0,4.03-.19,5.87-.36,1.49-.14,2.77-.25,3.74-.25h1.63c8.48,0,17.05-.32,25.34-.64,8.23-.32,16.74-.64,25.1-.64,1.26,0,2.51,0,3.77.02l3.55,6.53.45-.27c7.39-4.52,14.27-9.89,20.45-15.96.91,2.5,3.43,3.77,7.52,3.77,2.73,0,5.73-.53,8.13-.96,1.61-.29,3.27-.42,5.07-.42,4.4,0,8.92.86,13.28,1.69,2.17.41,4.42.84,6.63,1.16,2.18.31,4.32.47,6.36.47,6.82,0,12.3-1.78,16.02-5.17-.32,1.91.11,3.91,1.28,5.81,2.26,3.67,6.83,6.23,11.12,6.23.58,0,1.16-.05,1.72-.14,7.22-1.19,12.42-6.77,17.46-13.02,2.06,6.75,9.41,10.38,15.59,10.38,3.86,0,7.31-1.29,9.8-3.66.99,2.39,3.32,3.7,6.65,3.7s6.92-1.21,9.74-3.17c3.84-2.66,8.27-5.49,12.15-5.49,1.6,0,2.95.47,4.14,1.45.9.74,1.62,1.78,2.33,2.78,1.14,1.62,2.31,3.3,4.29,3.88.46.13.92.2,1.38.2,2.4,0,4.46-1.78,6.46-3.5.79-.68,1.6-1.38,2.4-1.94,2.16-1.51,4.78-2.24,7.99-2.24,3.61,0,7.45.93,11.05,1.94l36.08,10.1-.83-15.65c.26-.01.53-.02.79-.02,7,0,13.8,3.86,17.31,9.84l.99,1.67-.05-1.94c-.06-1.95.7-3.79,2.19-5.32,2.05-2.11,5.33-3.42,8.55-3.42.98,0,1.93.12,2.83.36,5.87,1.57,10.11,6.26,14.65,11.78l.77-.64c.27-1.12,9.55-5.17,19-5.17,4.84,0,11.37,1.1,14.94,6.33l.31.45.42-.34c.47-.38.88-.77,1.29-1.15.46-.42.89-.83,1.38-1.21,4.33,3.25,5.08,8.58,4.9,12.66Z"/>
  <path class="cls-1" d="M990.66,3.12c.13.24.28.48.46.72,1.42,1.89,4.28,3.21,6.97,3.21h.18c1.22-.03,2.45-.2,3.64-.36,1.28-.18,2.49-.34,3.66-.34s2.11.17,2.97.51c.69.28,1.34.68,2.03,1.11.64.4,1.3.81,2.03,1.14,2.08.93,4.37,1.02,6.54,1.02h.19c4.59,0,9.23-.29,13.78-.86l.12-.02c.72-.09,1.4-.18,2.06-.18.49,0,.91.05,1.29.15,1.03.26,1.98.95,2.9,1.61,7.3,5.28,13.2,7.64,19.14,7.64,5.28,0,10.96-1.85,18.36-5.99,2.44,1.58,5.45,2.45,8.56,2.45,4.35,0,8.42-1.6,11.3-4.43,2.35,1.48,5.15,2.26,8.13,2.26,3.87,0,7.61-1.36,10.37-3.7l.62,6.21.9,9.12.17,1.72,1.41-1c8.63-6.16,17.94-11.36,27.71-15.47l.3,4.47.08,1.23,1.19-.34c5.13-1.46,9.94-3.72,14.33-6.75,1.95,1.31,4.37,2.03,6.9,2.03,3.07,0,6.01-1.04,8.22-2.85l.26,4.07.4,6.27.08,1.19,1.16-.28c6.42-1.57,12.69-3.83,18.63-6.72,2.15,1.47,4.83,2.28,7.62,2.28,3.31,0,6.52-1.14,8.92-3.1,1.21,3.6,5.26,5.88,8.97,6.02.16,0,.33,0,.49,0,3.85,0,7.62-1.63,9.96-2.88,2.32,3.95,6.41,6.11,11.61,6.11,7.1,0,15.29-4.01,19.88-9.56l.94,2.84,1.93,5.81.31.93.94-.29c8.13-2.54,15.84-6.19,22.95-10.86.98,4,3.08,7.75,5.99,10.66l.51.51.65-.33,10.43-5.25,6.1-3.07c2.01,3.05,5.84,4.91,10.25,4.91,1.19,0,2.37-.14,3.49-.41,4.55-1.11,8.39-3.92,11.81-6.67l1.07,10.59.13,1.3,1.22-.46c15.13-5.74,30.99-8.93,47.16-9.48l6.24,9.4.51.77.81-.44c4.67-2.57,8.92-6.04,12.38-10.11l.46,2.24.89,4.3.33,1.57,1.27-.98,14.54-11.3c.98,6.17,3.3,12.13,6.75,17.34l.6.91.85-.68c4.76-3.76,9.1-8.05,12.92-12.76l.1,5.7.15,8.66.04,2.31,1.66-1.61,6.49-6.3,12.14-11.78c1.43,2.54,4.41,4.27,7.63,4.27,1.21,0,2.36-.25,3.37-.73l.83,3.36.87,3.52.31,1.24,1.13-.6,15.82-8.37,4.05-2.14c1.12,2.96,3.99,9.21,5.12,10.04,1.28.94,3.26,1.37,6.24,1.37,1.97,0,4.06-.19,5.91-.36,1.41-.13,2.75-.25,3.69-.25v-1l.05,1c.53,0,1.06,0,1.59,0,8.49,0,17.06-.33,25.35-.65,8.22-.31,16.73-.64,25.07-.64,1.16,0,2.31,0,3.47.02l1.44,2.65,1.72,3.16.5.93.9-.55c7.22-4.42,13.94-9.63,20.02-15.52,1.16,2.26,3.74,3.4,7.69,3.4,2.78,0,5.79-.53,8.22-.96,1.58-.28,3.21-.42,4.98-.42,4.35,0,8.85.85,13.19,1.68,2.18.41,4.43.84,6.66,1.16,2.2.32,4.37.48,6.43.48,6.4,0,11.65-1.54,15.42-4.5-.02,1.64.47,3.3,1.46,4.9,2.34,3.81,7.09,6.47,11.55,6.47.61,0,1.21-.05,1.8-.15,7.12-1.17,12.27-6.46,17.2-12.5,2.47,6.42,9.67,9.86,15.77,9.86,3.74,0,7.11-1.18,9.65-3.35,1.21,2.17,3.61,3.38,6.81,3.38s7.12-1.25,10.02-3.25c3.78-2.62,8.13-5.41,11.87-5.41,1.48,0,2.72.44,3.82,1.34.85.7,1.52,1.66,2.23,2.68,1.19,1.69,2.41,3.45,4.56,4.07.5.15,1.01.22,1.52.22,2.59,0,4.72-1.84,6.79-3.62.81-.7,1.58-1.36,2.36-1.91,2.08-1.45,4.6-2.15,7.71-2.15,3.55,0,7.34.93,10.92,1.92l35.4,9.91,1.34.38-.07-1.39-.77-14.45c.09,0,.18,0,.27,0,6.83,0,13.45,3.77,16.88,9.59l1.97,3.35-.11-3.89c-.05-1.81.66-3.52,2.05-4.95,1.96-2.02,5.1-3.27,8.19-3.27.94,0,1.84.12,2.7.34,5.72,1.53,9.91,6.17,14.4,11.61l.77-.64.77-.64c.18.22.15.51.1.6.68-1.2,9.34-4.95,18.51-4.95,4.72,0,11.08,1.06,14.53,6.12l.61.9.84-.69c.48-.4.91-.79,1.31-1.17.35-.33.69-.64,1.05-.94,3.73,3.01,4.51,7.73,4.41,11.5-6.68-.25-13.87-.37-22.53-.37-6.77,0-13.68.07-20.35.14-6.63.07-13.48.14-20.15.14H272.37s-185.98,0-185.98,0H2.08s-1.08,0-1.08,0c.07-7.73,1.01-12.22,4.07-18.64.51,1.95,1.49,3.79,2.85,5.28l1.08,1.18.59-1.48,1.45-3.65,3.49,3.85,2.1,2.32-.36-3.11c-.03-.25.02-.44.17-.6.28-.32.86-.52,1.49-.52.57,0,1.09.17,1.35.45.14.15.2.33.19.57l-.24,4.88,2.14-4.39,2.95-6.05,3.52,6.44,1,1.82.8-1.91c1.25-2.98,4.51-5.06,7.92-5.06.76,0,1.5.11,2.2.32,3.55,2.83,8.24,3.19,11.95,3.19,1.15,0,2.3-.04,3.27-.08l9.06-.36,9.06-.36.66-.03.24-.62,2.47-6.49c5.71,2.52,11.76,4.04,17.99,4.53l.7.05.29-.64c.9-1.99,2.57-3.61,4.57-4.46,1.93,4.68,6.75,7.98,11.85,7.98h.19s.61-.01.61-.01l.27-.55,1.28-2.58c1.51,2.53,4.6,3.97,7.4,3.97,1.71,0,3.27-.51,4.49-1.44,1.48,1.65,3.5,2.78,5.7,3.14l.46.08.35-.3,5.92-5.03c.59.89,1.74,1.68,3.97,1.68s4.39-.71,5.55-1.13c2.2-.81,4.55-1.22,6.98-1.22,3.82,0,7.77,1.02,11.43,2.95l1.83.97-.38-2.03c-.23-1.24-.26-2.42-.09-3.52,1.61.77,3.08,1.15,4.46,1.15,2.82,0,4.86-1.53,7.02-3.15.82-.62,1.66-1.25,2.58-1.83-.36,1.5-.22,3.17.45,4.87,1.42,3.63,4.73,6.28,8.25,6.57.32.03.65.04.97.04,6.04,0,10.89-4.72,13.45-9.08,7.96,3.61,16.32,6.35,24.87,8.16l2.38.5-1.34-2.03-2.43-3.67c6.72,2.13,12.55,3.17,17.76,3.17,4.16,0,7.99-.68,11.42-2.02l-.99,1.81-1.57,2.86,2.9-1.49c5.4-2.78,11.49-4.25,17.62-4.25,1.21,0,2.43.06,3.63.17l.32,3.83.08.91h.91s.42.01.42.01c3.68,0,7.36-.49,10.91-1.45l1.24-.34-.63-1.12c-.69-1.22-1.64-2.29-2.76-3.14l1.27.02,6.04.11,7.26,10.41.86,1.23.81-1.27,7.34-11.56.08,8.46.02,1.93,1.57-1.13c4.07-2.93,9.11-4.55,14.2-4.55,1.11,0,2.23.08,3.33.23,2.7.35,4.92.84,6.87,1.28,2.52.56,4.7,1.05,7.08,1.05,2.67,0,5.34-.61,8.53-1.98,1.26,3.69,5.59,5.35,9.65,5.35,1.28,0,2.53-.16,3.71-.46,1.52-.4,3.02-.94,4.48-1.46,2.8-1,5.44-1.95,8.12-1.95.6,0,1.2.05,1.77.15.91.16,1.84.45,2.82.75,1.5.47,3.06.95,4.6.95,1.02,0,1.92-.21,2.76-.63,1.27-.64,2.15-1.69,3-2.71.83-.99,1.61-1.92,2.64-2.3.39-.14.83-.21,1.35-.21.69,0,1.42.12,2.23.27l21.02,3.82,21.02,3.82,3.51.64-2.67-2.37c-2.76-2.45-4.95-5.49-6.42-8.86l8.99,3.52,4.34,1.7,1.5.59-.14-1.61c-.06-.64.31-1.15.53-1.4.48-.53,1.18-.85,1.83-.85.19,0,.37.03.53.08l2.75,6.93.75,1.88,1.04-1.73c.57-.94,1.69-1.51,3.02-1.51,1.1,0,2.51.44,3.17,1.67l.6,1.13.95-.86,12.83-11.63.3,1.56.21,1.08c.24,1.23,2.19,3.05,6.59,6.91,2.67,2.35,5.7,5,6.53,6.35l.79,1.28.88-1.22c.52-.73,1.07-1.52,1.62-2.33,1.93-2.81,4.08-5.93,6.64-8.33.16,3.1,1.16,6.13,2.89,8.73l.64.96.86-.77c2.77-2.5,5.86-4.61,9.2-6.27l2.01,2.73,2.5,3.4.53.72.78-.45c4.86-2.83,10.38-4.66,15.97-5.27l.96-.1-.07-.96c-.1-1.44-.62-2.86-1.45-4.11,5.62,1.83,10.97,4.37,15.93,7.59l2.08,1.35-.56-2.41c-.56-2.44.05-5.1,1.58-7.07l3.48,4.89,1.21,1.7.71.99.84-.89c2.31-2.45,4.94-4.57,7.83-6.3l.12,3.83.17,5.49.07,2.23,1.62-1.54.26-.25,4.89-4.64,7.42-1.22,6.01-.99.7.58,5.83,4.77,1.2.98.4-1.49c1.09-4.03,5.79-4.47,7.77-4.47,2.3,0,4.83.53,6.95,1.44.84.36,1.69.76,2.55,1.15,3.75,1.72,7.62,3.51,11.49,3.51,1.62,0,3.15-.32,4.54-.96l.79-.36-.24-.83-2.06-7.08-1.54-5.3c10.34,3.31,20.06,8.81,28.2,15.98l1.62,1.43.04-2.16c.06-3.24,1.17-6.43,3.08-9.04-.52,2.91-.45,5.93.23,8.8l.3,1.25,1.14-.6,8.45-4.43,7.86-4.12c2.99,2.55,5.39,5.78,6.98,9.38l1.83-.81c.07.15.05.26.05.27.09-.64,1.49-2.89,7.47-9.88.05.14.11.28.18.43,2.06,4.35,10.45,9.41,18.18,9.41,3.67,0,8.57-1.14,11.86-6.31,2.67,3.85,6.43,6.91,10.75,8.72l1.06.44.29-1.11c1.52-5.74,7.61-8.36,12.62-8.36,4.47,0,8.16,1.86,10.12,5.11l1.28,2.13.55-2.42c1-4.4,5.97-6.78,10.37-6.85h.29c3.54,0,7.09,1.07,10.53,2.12,1.06.32,2.15.65,3.24.95,5.36,1.47,10.95,2.22,16.6,2.22,7.27,0,14.36-1.21,21.09-3.6.05.42.18.84.4,1.26.67,1.29,1.92,2.13,3.2,2.13.33,0,.66-.06.97-.16l42.68-8.11.26,8.21.04,1.21,1.18-.27c6.73-1.52,12.8-6.01,16.33-11.95,2.14,5.86,5.19,11.3,9.08,16.2l.79.99.78-1,8.68-11.08.93-1.19,2.71,5.12.42.79.83-.33c4.04-1.6,7.82-3.99,11.03-6.94,2.79,3.18,13.88,8,15.36,8.12.44.04.89.05,1.33.05,6.98,0,12.22-4.35,17.77-8.96,1.1-.92,2.24-1.86,3.39-2.76,1.26,4.38,6.15,7.01,10.6,7.01,1.05,0,2.08-.14,3.04-.42,4.17-1.2,7.81-4.31,10.87-9.27M991.27,0c-2.56,5.01-6.34,9.87-11.75,11.43-.89.26-1.83.38-2.76.38-4.75,0-9.63-3.13-9.89-7.82-7.25,5.43-13.34,12.53-21.86,12.53-.41,0-.83-.02-1.25-.05-1.65-.13-16.84-7.07-14.95-8.99-3.36,3.41-7.44,6.11-11.89,7.87-1.14-2.16-2.29-4.32-3.43-6.48-3.52,4.49-7.04,8.99-10.56,13.48-4.28-5.38-7.57-11.54-9.67-18.09-3.14,6.72-9.5,11.85-16.74,13.48-.1-3.13-.2-6.25-.29-9.38-14.64,2.78-29.27,5.57-43.91,8.35-.23.09-.47.13-.7.13-1.77,0-3.36-2.4-2.26-3.95-7.13,2.77-14.78,4.16-22.43,4.16-5.51,0-11.02-.73-16.33-2.19-4.64-1.27-9.23-3.11-14.03-3.11-.1,0-.21,0-.31,0-4.91.08-10.25,2.84-11.33,7.63-2.31-3.82-6.6-5.6-10.98-5.6-5.94,0-12.04,3.26-13.59,9.1-4.64-1.94-8.62-5.41-11.19-9.73-2.69,5.31-7.16,7.24-11.81,7.24-9.63,0-20.06-8.23-17.18-11.75-1.17,1.43-10.24,11.54-9.62,12.93-1.74-3.94-4.42-7.46-7.76-10.17-5.64,2.95-11.27,5.91-16.91,8.86-.95-4.02-.66-8.32.83-12.17-3.73,3.06-6.03,7.8-6.12,12.62-8.73-7.69-19.17-13.45-30.34-16.73,1.37,4.72,2.75,9.44,4.12,14.16-1.35.62-2.73.87-4.13.87-4.53,0-9.26-2.68-13.65-4.58-2.2-.95-4.84-1.52-7.34-1.52-4.03,0-7.73,1.48-8.73,5.21-2.29-1.88-4.59-3.76-6.88-5.63-4.72.78-9.45,1.55-14.17,2.33-1.79,1.7-3.58,3.4-5.38,5.1-.11-3.66-.22-7.32-.33-10.99-3.53,1.91-6.75,4.38-9.5,7.3-1.81-2.54-3.61-5.07-5.42-7.6-2.33,2.24-3.38,5.74-2.65,8.89-6.18-4-13-7-20.13-8.86,2.25,1.33,3.92,3.67,4.1,6.29-5.75.63-11.37,2.48-16.36,5.4-1.67-2.27-3.34-4.54-5.01-6.81-3.7,1.76-7.14,4.05-10.18,6.79-2.02-3.02-2.98-6.73-2.69-10.35-4.24,3.19-7.38,8.45-10.11,12.25-1.89-3.07-12.61-10.95-12.99-12.92-.29-1.46-.57-2.92-.85-4.38-4.72,4.27-9.43,8.55-14.15,12.82-.77-1.46-2.41-2.2-4.05-2.2-1.54,0-3.08.66-3.88,1.99l-2.9-7.3c-.41-.24-.86-.34-1.32-.34-1.73,0-3.52,1.54-3.36,3.34-5.14-2.01-10.29-4.02-15.43-6.03,1.45,4.36,4.06,8.32,7.49,11.37-14.02-2.55-28.03-5.09-42.05-7.64-.79-.14-1.61-.29-2.41-.29-.58,0-1.15.07-1.7.28-2.42.89-3.44,3.89-5.74,5.05-.75.38-1.52.52-2.31.52-2.33,0-4.83-1.27-7.25-1.69-.65-.11-1.29-.16-1.94-.16-4.34,0-8.55,2.32-12.85,3.44-1.09.28-2.27.43-3.46.43-4.19,0-8.43-1.82-8.96-5.76-3.84,1.78-6.64,2.38-9.23,2.38-4.08,0-7.62-1.51-13.82-2.31-1.15-.16-2.3-.24-3.46-.24-5.26,0-10.52,1.66-14.79,4.74-.04-3.95-.07-7.89-.11-11.84-3.05,4.81-6.1,9.61-9.15,14.42-2.52-3.61-5.04-7.22-7.55-10.83-4.36-.08-8.73-.16-13.09-.24,2.94.33,5.68,2.14,7.14,4.72-3.47.94-7.06,1.41-10.65,1.41-.14,0-.28,0-.41,0-.13-1.55-.26-3.1-.39-4.65-1.51-.18-3.04-.27-4.56-.27-6.26,0-12.52,1.5-18.08,4.36.81-1.49,1.63-2.98,2.44-4.46-4.27,2.29-8.95,3.19-13.75,3.19-6.75,0-13.75-1.79-20.19-4.03,1.34,2.03,2.68,4.06,4.02,6.09-8.78-1.85-17.35-4.7-25.5-8.47-2.62,4.98-7.49,9.38-13.02,9.38-.29,0-.59-.01-.88-.04-5.9-.5-10.46-8.4-6.45-12.76-5.18,2.03-7.57,6.3-11.93,6.3-1.44,0-3.1-.47-5.14-1.63-.52,1.67-.54,3.43-.21,5.19-3.68-1.95-7.78-3.07-11.9-3.07-2.47,0-4.94.4-7.32,1.28-1.54.57-3.52,1.07-5.2,1.07-1.83,0-3.31-.6-3.54-2.36-2.33,1.98-4.67,3.97-7,5.95-2.29-.38-4.41-1.71-5.75-3.61-1.19,1.31-2.88,1.9-4.61,1.9-3.3,0-6.76-2.15-7.27-5.5-.77,1.55-1.54,3.11-2.31,4.66-.06,0-.12,0-.18,0-4.98,0-9.77-3.5-11.25-8.26-2.66.8-4.94,2.79-6.09,5.33-6.43-.5-12.77-2.17-18.62-4.89-.95,2.5-1.9,4.99-2.85,7.49-6.04.24-12.08.48-18.11.72-1.06.04-2.15.08-3.24.08-4.15,0-8.33-.51-11.47-3.09-.87-.29-1.77-.42-2.68-.42-3.69,0-7.4,2.24-8.84,5.67-1.48-2.71-2.97-5.42-4.45-8.13-1.27,2.6-2.53,5.19-3.8,7.79.07-1.39-1.22-2.06-2.54-2.06-1.4,0-2.83.76-2.65,2.24-1.52-1.68-3.04-3.36-4.56-5.04-.68,1.72-1.36,3.43-2.05,5.15-1.98-2.16-3.07-5.11-2.99-8.03C1.21,16.57,0,21.46,0,31.12h2.08c28.1,0,56.21,0,84.31,0h185.98c85.96,0,171.92,0,257.88,0h1325.75c13.39,0,27-.29,40.51-.29,7.89,0,15.74.1,23.48.41,0-.04,0-.08,0-.12.32-5.42-1.08-10.66-5.39-13.68-1.11.81-1.9,1.7-2.98,2.59-3.36-4.92-9.31-6.55-15.36-6.55-10.14,0-20.53,4.6-19.39,5.99-4.12-5-8.65-10.27-14.91-11.94-.95-.26-1.95-.38-2.95-.38-5.58,0-11.39,3.76-11.24,9.25-3.61-6.14-10.64-10.08-17.74-10.08-.44,0-.88.02-1.32.05.27,5.15.55,10.3.82,15.46-11.8-3.3-23.6-6.61-35.4-9.91-3.59-1-7.49-1.96-11.19-1.96-2.97,0-5.82.62-8.28,2.33-2.81,1.95-5.43,5.34-8.57,5.34-.4,0-.82-.06-1.24-.18-2.99-.87-4.03-4.58-6.44-6.56-1.35-1.11-2.86-1.56-4.45-1.56-4.1,0-8.73,3.02-12.44,5.58-2.62,1.81-6.28,3.08-9.45,3.08s-5.64-1.17-6.44-4.12c-2.6,2.82-6.27,4.09-10.02,4.09-6.8,0-13.87-4.18-15.36-10.96-4.77,5.98-10.23,12.38-17.77,13.62-.54.09-1.09.13-1.64.13-7.1,0-14.43-7.16-11.23-13.49-4.06,4.95-10.61,6.62-17.19,6.62-2.12,0-4.24-.17-6.29-.47-6.66-.96-13.34-2.85-19.99-2.85-1.72,0-3.44.13-5.16.43-2.46.44-5.4.95-8.05.95-3.56,0-6.6-.93-7.26-4.22-6.31,6.29-13.36,11.84-20.96,16.49-1.15-2.11-2.29-4.22-3.44-6.33-1.36-.02-2.71-.03-4.07-.03-16.77,0-33.53,1.29-50.42,1.29-.53,0-1.06,0-1.59,0-.02,0-.04,0-.06,0-2.22,0-6.15.61-9.61.61-2.31,0-4.41-.27-5.64-1.18-1.2-.88-5.28-10.59-5.17-10.65-6.96,3.68-13.92,7.37-20.88,11.05-.68-2.73-1.36-5.46-2.03-8.19-1.16.89-2.58,1.29-4.02,1.29-3.14,0-6.38-1.93-7.28-5-6.56,6.37-13.12,12.73-19.67,19.1-.1-5.73-.2-11.45-.3-17.18-4.17,5.53-9.06,10.52-14.49,14.81-3.69-5.57-6.05-12.01-6.83-18.64-5.3,4.12-10.61,8.24-15.91,12.36-.59-2.87-1.19-5.74-1.79-8.61-3.62,4.7-8.22,8.65-13.42,11.51-2.18-3.29-4.36-6.57-6.55-9.86-16.4.49-32.71,3.74-48.04,9.56-.42-4.15-.84-8.29-1.25-12.44-3.9,3.18-7.97,6.45-12.86,7.64-1.05.26-2.15.38-3.26.38-4.02,0-8.07-1.71-9.86-5.23-5.79,2.92-11.58,5.83-17.37,8.74-3.13-3.13-5.26-7.25-6.02-11.61-7.35,5-15.44,8.91-23.92,11.56-1.16-3.49-2.32-6.98-3.48-10.46-4.02,6-12.74,10.69-20.23,10.69-4.73,0-8.97-1.87-11.21-6.47-3,1.75-6.81,3.25-10.36,3.25-.15,0-.3,0-.45,0-4.01-.15-8.21-3.01-8.36-7.01-2.38,2.69-5.98,4.1-9.56,4.1-2.69,0-5.38-.8-7.52-2.44-6.05,2.99-12.42,5.31-18.97,6.91-.26-4.18-.53-8.37-.79-12.55-2.17,2.69-5.64,4.12-9.08,4.12-2.47,0-4.93-.73-6.89-2.25-4.42,3.15-9.39,5.53-14.61,7.01-.13-1.95-.27-3.91-.4-5.86-10.31,4.22-20.13,9.64-29.2,16.12-.58-5.81-1.15-11.62-1.73-17.42-2.74,3.2-6.96,4.89-11.16,4.89-2.94,0-5.87-.83-8.27-2.56-2.8,3.1-6.99,4.73-11.16,4.73-3.03,0-6.04-.86-8.51-2.63-7.16,4.06-12.89,6.16-18.41,6.16-5.93,0-11.61-2.42-18.56-7.45-1-.73-2.04-1.47-3.24-1.77-.51-.13-1.02-.18-1.54-.18-.77,0-1.55.1-2.31.2-4.53.57-9.09.85-13.66.85-.06,0-.12,0-.19,0-2.08,0-4.23-.08-6.13-.93-1.43-.64-2.65-1.69-4.1-2.27-1.08-.43-2.19-.58-3.34-.58-2.4,0-4.9.65-7.33.7-.05,0-.11,0-.16,0-3.56,0-7.81-2.65-6.82-6.05h0ZM532.05,7.55c-.29,0-.58.02-.87.05,1.64.3,3.26.66,4.88,1.08-1.22-.72-2.6-1.14-4-1.14h0Z"/>
</svg>