<?xml version="1.0" encoding="UTF-8"?>
<svg id="Layer_1" data-name="Layer 1" xmlns="http://www.w3.org/2000/svg" version="1.1" viewBox="0 0 1912.84 88.46">
  <defs>
    <style>
      .cls-1 {
        fill: #fff;
        stroke-width: 0px;
      }
    </style>
  </defs>
  <path class="cls-1" d="M1909.57,45.03c-.06,1.91-.7,3.8-1.8,5.36-2.75-6.34-4.9-12.93-6.4-19.67.21,1.1.41,2.2.62,3.3-3.39.6-6.49,2.67-8.35,5.57-.17.27-10.98-12.74-11.82-14.1-2.13-3.42-2.82-6.89-5.08-8.49-1.07-.75-2.5-1.09-4.59-.79-9.69,1.36-14.9,15.89-24.19,19.31-4.56-5.27-10.87-9.76-17.84-9.48s-13.66,7.3-11.49,13.92c-18.71-9.56-39.28-15.47-60.21-17.31-4.53-10.13-18.93-10.45-29.48-7.02-10.55,3.43-21.71,9.05-32.15,5.28-.67-3.73-1.35-7.46-2.02-11.19-6.15,7.29-12.6,14.82-21.3,18.72-8.7,3.9-20.34,3.02-26.09-4.59-.92-1.21-1.69-2.59-2.93-3.46-4.62-3.24-10.02,2.42-14.43,5.94-10.62,8.49-29.11,2.83-33.15-10.15-6.93,5.85-10.65,10.01-17.58,15.87-16.45-2.84-30.77-15.86-47.42-14.66-16.13,1.17-27.93,15.12-37.76,27.96-7.6-7.34-15.21-14.69-22.81-22.03-5.14,5.17-10.9,9.72-17.12,13.52-3.26-5.65-6.52-11.3-9.78-16.95l-31.44,22.29c2.14-7.02,2.55-14.57,1.19-21.78-17.16,9.46-38.79,10.34-56.66,2.31-.24,3.35-.48,6.71-.72,10.06-13.48,1.54-25.91-6.89-39.17-9.77s-31.49,5.39-28.6,18.64c-8.41.78-17.07-4.01-20.89-11.55-5.28,3.13-10.56,6.25-15.84,9.38-1.75-5.76-2.31-11.87-1.63-17.85-10.88,5.16-25,9.01-35.88,14.17.14-6.07-7.65-9.39-13.57-8.03-5.92,1.36-10.81,5.47-16.52,7.55-10.24,3.73-22.73-.13-29.07-8.99-5.01,9.16-16.87,12.91-27.15,11.11s-19.22-8.06-27.11-14.9c-7.07,5.28-13.6,11.3-19.44,17.92-8.85-14.44-29.41-20.21-44.49-12.51-5.28,2.7-9.85,6.77-15.42,8.79s-12.96,1.18-15.81-4.01c-3.98,3.98-7.95,7.96-11.93,11.94-3.16-2.35-5.65-5.61-7.08-9.29-3.08,4.67-4.43,10.45-3.75,16-5.36-4.45-8.01-11.94-6.63-18.76-13.17,5.75-26.33,11.5-39.5,17.25,1.38-7.04,2.75-14.08,4.13-21.13-17.71,3.38-34.9,9.45-50.82,17.92-4.04-6.02-8.08-12.04-12.13-18.06-13.13,5.06-25.56,11.97-36.79,20.45-1.33-2.5.02-5.44,2.23-7.09-18.23,1-39.27-6.57-56.1-.76-.63.22-.9.75-.9,1.35-11.02.27-22.03.53-33.05.8,2.8-4.29,5.59-8.57,8.39-12.86-21.82,4.91-43.64,9.81-65.46,14.72,3.15-1.24.35-6.59-3.03-6.42s-5.96,2.94-8.93,4.57c-6.48,3.55-16.21.05-17.62-7.2-5.15,8.58-17.21,10.78-26.72,7.66-9.51-3.12-17.07-10.26-24.29-17.2-.81,5.54,1.99,11.44,6.79,14.32-10.23-5.35-20.47-10.7-30.7-16.05-12.4,14.65-37.37,16.12-51.4,3.03-1.81,4.32-3.63,8.64-5.44,12.96-6.44-3.45-12.12-8.31-16.52-14.14-8.08,6.34-15.56,13.45-22.3,21.19-8.12-1.71-13.69-11.09-11.31-19.04-2.39,5.6-4.79,11.21-7.18,16.81-10.66-2.89-17.98-14.8-15.75-25.61-4.63,3.43-9.27,6.86-13.9,10.29-4.82-6.34-6.8-14.75-5.32-22.58-16.73,13.17-32.44,27.64-46.93,43.23-4.24-5.45-6.94-12.08-7.72-18.94-3.56,2.49-7.11,4.99-10.67,7.48-5.38-6.97-7.85-16.12-6.71-24.85-5.8,6.95-10.53,14.88-17.47,20.7-6.07,5.09-12.14,10.19-18.21,15.28-2.91-5-5.82-10-8.74-14.99-6.01,8.37-18.57,7.61-28.59,5.18-14.44-3.51-28.47-8.68-41.72-15.38-3.28,4.11-6.55,8.22-9.83,12.33-11.19,2.98-23.96-1.34-31.05-10.49-4.32,5.02-8.64,10.05-12.96,15.07-4.2-2.45-7.3-6.7-8.37-11.44l-2.1,12.57c-16.96-1.69-34.33.89-50.07,7.43-5.05-5.91-10.1-11.82-15.15-17.73-3.22,5.83-6.44,11.66-9.67,17.49-2.04-3.16-2.68-7.2-1.7-10.84-6.84,3.83-12.04,10.48-14.13,18.03-.78-9.12-1.57-18.25-2.35-27.37-6.17,4.15-11.56,9.43-15.83,15.52-.89-3.06-1.78-6.13-2.67-9.19-14.92,8.47-32.69,11.82-49.67,9.34-3.45-.71-7.25,1.7-8.08,5.13-.83-3.41-1.66-6.83-2.48-10.24-6.35,2.28-12.7,4.56-19.04,6.84.94,12.97,2.63,28.1,3.78,41.68.36-.08.75-.12,1.17-.12.38,0,.72.04,1.05.11.34-.07.71-.11,1.1-.11,6.14,0,12.23.12,18.3.73,26.49.47,52.94,2.81,79.45,2.87,2.2,0,3.65,1.18,4.35,2.72,26.51-.11,53.03-.22,79.54-.32l127.36-.52c50.09-.2,100.18-.41,150.27-.61,55.72-.23,111.44-.45,167.16-.68,59.34-.24,118.68-.48,178.02-.72,60.96-.25,121.91-.5,182.87-.74,60.56-.25,121.13-.49,181.69-.74,58.16-.24,116.33-.47,174.49-.71l161.27-.66,142.03-.58c38.92-.16,77.85-.32,116.77-.47,28.49-.12,56.99-.23,85.49-.35,15.95-.06,32.26.86,48.18-.2,2.35-.16,4.7.01,6.97-.29-.17-2.4-.15-5.05.27-7.54,2.01-11.83-4.35-23.72-3.27-35.67h0Z"/>
  <path class="cls-1" d="M843.9,41.95c2.03-.11,4.02-.32,5.97-.68-1.93-1.16-4.22-.64-5.97.68Z"/>
  <polygon class="cls-1" points="1912.84 88.46 1912.84 80.7 4.31 88.46 1912.84 88.46"/>
  <path class="cls-1" d="M.59,49.09c-1.71-1.61-3.85-2.75-6.14-3.27C-2.46,48.8,0,52.42,1.66,56.39c-1.74-.87-3.77-1.15-5.68-.79,3.07.86,5.17,4.28,4.56,7.4.32-.1.1-.66-.24-.66s-.58.32-.76.59c-.86,1.27-1.72,2.54-2.58,3.81-.02-.74-.05-1.49-.07-2.23.36,6.47.44,12.95.24,19.43-.33-.11,0-.69.33-.6s.49.48.59.81c.5,1.68.99,3.35,1.49,5.03,1.89-.11,3.77-.42,5.6-.93"/>
</svg>