<?xml version="1.0" encoding="UTF-8"?>
<svg id="Layer_1" data-name="Layer 1" xmlns="http://www.w3.org/2000/svg" viewBox="0 0 1918.76 208.51">
  <defs>
    <style>
      .cls-1 {
        fill: white;
        stroke-width: 0px;
      }
    </style>
  </defs>
  <path class="cls-1" d="M1894.89,208.51s17.81-14.59,21.5-24.25c9.41-24.61-11.59-49.12-21.81-73.41-10.53-25.04-9.56-53.21-8.42-80.35-22.11,27.4-44.3,54.9-69.83,79.15-8.63,8.2-18,16.23-29.39,19.74-14.92,4.6-31.22.74-45.48-5.64-19.21-8.6-36.34-21.8-49.57-38.17-13.01,9.34-23.1,22.33-29.74,36.91-4.32,2.9-8.64,5.81-12.96,8.71-3.31-27.74-30.39-50.47-58.28-48.91-20.54,1.14-38.88,13.46-59.19,16.72-21.63,3.47-43.96-3.76-62.23-15.85-18.28-12.08-33.04-28.72-46.83-45.74-4.12-5.09-8.88-10.63-15.39-11.33-5.46-.58-10.58,2.46-15.23,5.39-37.51,23.61-75.01,47.22-112.52,70.84-.65-12.87-1.3-25.74-1.95-38.61-15.07,23.16-53.51,25.45-71.22,4.24-13.76,8.78-26.14,19.72-36.54,32.31-5.83-33.08-8.82-66.65-8.95-100.24-45.83,31.97-90.11,65.23-131.89,102.33-18.56-5.07-25.03-29.87-42.69-37.5-6.45-2.79-13.7-2.94-20.72-2.55-36.8,2.04-71.43,17.47-104.25,34.24-6.02,3.07-13.32,6.21-19.2,2.87-4.81-2.72-6.65-8.8-10.91-12.32-7.72-6.38-19.83-1.77-26.6,5.61-6.76,7.38-10.77,17.07-18.1,23.89-2.04,1.9-4.57,3.63-7.35,3.49-2.86-.15-5.23-2.22-7.2-4.3-8.72-9.18-14.84-20.82-17.45-33.21-19.55,10.08-37.23,21.01-52.35,36.99-23.11,5.91-49.5-22.09-68.46-7.62-6.28,4.8-10.1,13.7-17.93,14.82-7.79,1.12-13.83-6.22-20.7-10.07-25.83-14.46-61.27,21.39-85.39,4.23-8.38-5.96-12.81-17.3-22.56-20.55-6.09-2.03-12.72-.31-18.9,1.42-20.98,5.87-41.96,11.74-62.93,17.6-14.66,4.1-30.1,8.22-44.9,4.67-14.8-3.55-28.25-17.69-25.38-32.64-8.95,5.29-7.22,19.98-15.4,26.4-3.29,2.58-7.61,3.32-11.74,3.98-14.4,2.3-29.07,4.6-43.48,2.4-14.41-2.2-28.78-9.69-35.62-22.56-16.76,16.48-44.39,20.62-65.24,9.77-25.54,25.49-66.31,31.34-90.75,57.89-5.09-7.1-7.49-16.08-6.62-24.77-10.54,16.67-21.09,33.34-31.63,50.01-6.81-11.42-10.09-24.91-9.28-38.18-8.42,14.87-16.85,29.75-25.27,44.62l1894.89,7.52Z"/>
  <path class="cls-1" d="M153.41,167.84c1.93,0,1.93-3,0-3s-1.93,3,0,3h0Z"/>
</svg>